<?xml version="1.0" standalone="no"?>
<!DOCTYPE svg PUBLIC "-//W3C//DTD SVG 20010904//EN"
 "http://www.w3.org/TR/2001/REC-SVG-20010904/DTD/svg10.dtd">
<svg version="1.0" xmlns="http://www.w3.org/2000/svg"
 width="150.000000pt" height="150.000000pt" viewBox="0 0 150.000000 150.000000"
 preserveAspectRatio="xMidYMid meet">

<g transform="translate(0.000000,150.000000) scale(0.100000,-0.100000)"
fill="#000000" stroke="none">
<path d="M582 1461 c-332 -82 -562 -375 -562 -715 1 -333 226 -625 546 -706
94 -24 260 -27 351 -5 201 47 388 194 481 378 216 423 -12 929 -473 1047 -99
25 -241 26 -343 1z m278 -86 c16 -19 -3 -45 -31 -45 -22 0 -23 1 -7 35 13 29
21 31 38 10z m130 -5 c0 -5 -4 -10 -10 -10 -5 0 -10 5 -10 10 0 6 5 10 10 10
6 0 10 -4 10 -10z m-326 -6 c24 -9 20 -44 -4 -44 -15 0 -20 7 -20 25 0 27 1
28 24 19z m326 -139 c0 -10 13 -6 44 11 46 26 79 26 122 -2 12 -7 41 -14 65
-16 35 -2 44 -7 43 -20 -2 -18 6 -22 39 -19 16 2 19 -2 21 -31 1 -7 6 -16 11
-20 6 -4 -8 -5 -30 -1 -22 3 -41 10 -43 14 -2 5 -11 2 -19 -7 -19 -18 -36 -14
-43 12 -10 39 -41 71 -79 84 -37 12 -42 11 -85 -16 -25 -16 -46 -33 -46 -37 0
-4 9 -28 20 -52 15 -33 28 -46 55 -55 19 -6 35 -16 35 -21 0 -12 -6 -11 -41 7
-17 8 -32 14 -32 12 -1 -2 -11 -20 -21 -41 -17 -32 -17 -41 -6 -62 7 -13 30
-33 50 -43 34 -16 39 -17 49 -3 9 13 10 11 5 -9 -4 -22 0 -28 27 -40 18 -8 39
-26 48 -40 14 -20 14 -23 1 -15 -8 6 -24 10 -35 10 -11 0 -25 11 -32 26 -20
41 -36 49 -102 54 -33 2 -69 6 -80 10 -17 5 -49 -15 -99 -62 -16 -16 -64 -17
-116 -2 -47 13 -93 -3 -107 -37 -11 -31 -5 -45 31 -69 44 -30 73 -73 76 -118
7 -79 23 -95 63 -60 23 19 61 27 61 13 0 -20 21 -9 65 31 25 23 45 37 45 31 0
-6 -5 -14 -11 -18 -14 -9 41 -66 58 -60 14 6 18 -10 4 -18 -8 -5 -59 9 -92 25
-21 10 -59 -16 -59 -40 0 -10 -7 -25 -16 -32 -20 -16 -74 -21 -74 -7 0 9 -33
48 -96 112 -17 18 -35 43 -39 56 -4 12 -19 33 -33 45 -23 19 -24 25 -13 39 18
21 7 46 -17 39 -10 -2 -26 3 -35 11 -21 21 -29 7 -17 -32 5 -18 5 -34 0 -37
-27 -17 13 -95 48 -95 15 0 22 -5 19 -12 -2 -7 -12 -12 -22 -10 -10 2 -14 -1
-10 -8 4 -6 2 -17 -5 -25 -15 -18 9 -57 45 -73 14 -6 25 -16 25 -21 0 -19 61
-41 81 -30 16 8 24 5 44 -20 17 -19 39 -32 65 -36 22 -4 42 -11 46 -16 9 -16
49 -10 72 11 18 17 22 18 22 5 0 -12 8 -14 38 -9 20 3 49 1 63 -5 29 -10 43
-5 32 12 -4 6 -8 22 -9 35 -2 19 0 21 11 12 8 -6 15 -23 17 -36 2 -14 6 -23 9
-22 4 2 16 -5 28 -16 43 -39 81 16 53 78 -14 30 -21 35 -41 30 -21 -5 -23 -3
-12 10 8 9 22 16 32 16 12 0 24 11 29 26 6 15 19 38 31 52 14 18 18 34 14 53
-3 15 -2 30 4 33 13 9 42 -4 35 -16 -3 -5 2 -8 12 -7 11 2 25 0 32 -5 32 -20
69 -15 97 14 16 16 31 27 36 25 15 -10 -5 -93 -41 -165 -21 -41 -40 -85 -44
-96 -19 -63 -210 -183 -325 -204 -142 -26 -303 -1 -434 67 -95 49 -219 173
-265 263 -73 147 -94 329 -53 472 23 79 83 197 117 229 32 30 41 18 13 -20
-12 -17 -20 -34 -16 -37 4 -4 26 -7 49 -8 37 -1 43 -4 46 -23 2 -16 -2 -23
-13 -23 -9 0 -13 -4 -10 -10 3 -5 4 -10 1 -10 -3 0 -12 14 -19 32 l-13 32 -26
-35 c-48 -65 -46 -70 30 -67 48 2 67 -1 68 -9 1 -7 2 -14 4 -15 8 -11 6 -46
-5 -72 -22 -53 -39 -116 -31 -123 3 -4 20 3 36 16 28 20 32 21 47 6 12 -12 25
-15 52 -10 64 12 105 14 116 5 7 -6 21 -4 36 3 13 7 43 18 66 25 49 15 86 56
77 85 -3 11 -8 35 -9 54 -2 19 -11 43 -20 53 -9 10 -14 24 -10 29 6 10 -3 12
-59 15 -11 1 -22 8 -24 15 -4 13 9 13 57 0 9 -3 17 8 23 29 6 22 15 32 28 32
13 0 18 -5 14 -15 -4 -8 -1 -15 6 -15 8 0 11 12 8 38 -6 49 18 72 45 41 9 -12
17 -27 17 -34z m-299 -111 c5 -14 11 -37 14 -52 5 -20 0 -16 -19 18 -14 25
-25 51 -26 58 0 20 20 3 31 -24z m-96 -24 c4 -6 11 -8 16 -4 6 3 5 -3 -3 -15
-15 -25 -27 -26 -54 -6 -16 13 -17 16 -4 25 19 13 37 13 45 0z m824 -92 c16
-26 41 -157 31 -163 -4 -3 -15 26 -24 63 -9 37 -21 79 -25 95 -11 33 -1 35 18
5z m-789 -409 c0 -6 -4 -7 -10 -4 -5 3 -10 11 -10 16 0 6 5 7 10 4 6 -3 10
-11 10 -16z"/>
<path d="M690 610 c0 -5 5 -10 11 -10 5 0 7 5 4 10 -3 6 -8 10 -11 10 -2 0 -4
-4 -4 -10z"/>
</g>
</svg>
